#!OML:ASF F:\VICON\USERDATA\INSTALL\rory3\rory3.ASF
:FULLY-SPECIFIED
:DEGREES
1662
root 0.952426 14.7533 -1.4141 -1.33534 18.0327 -5.82334
lowerback 35.7909 5.70518 -11.9769
upperback 0.425025 1.10196 -7.14663
thorax -17.8544 1.14078 -2.23231
lowerneck -16.147 -7.26797 -12.2775
upperneck 10.5304 -10.4745 21.5031
head 7.85506 -3.87665 8.00798
rclavicle -6.36111e-014 7.63333e-014
rhumerus -85.6894 50.6187 -107.582
rradius 126.552
rwrist -37.6418
rhand 41.9143 10.8783
rfingers 7.12502
rthumb 63.9618 2.06248
lclavicle -6.36111e-014 7.63333e-014
lhumerus -74.2747 -60.3239 93.7062
lradius 128.627
lwrist 76.1164
lhand 24.0981 42.2854
lfingers 7.12502
lthumb 48.3319 64.3419
rfemur -22.3587 -14.9493 17.5422
rtibia 52.9126
rfoot -22.4138 -11.1198
rtoes -23.3535
lfemur -32.7364 -1.94219 -14.9617
ltibia 57.3978
lfoot -15.5348 -14.3701
ltoes 4.55553
1663
root 0.943944 14.7629 -1.42401 -1.76399 17.9399 -6.11655
lowerback 35.7446 5.79845 -11.7148
upperback 1.01418 1.42809 -7.09966
thorax -17.1164 1.23486 -2.42193
lowerneck -16.5242 -7.43146 -12.5441
upperneck 10.1245 -10.5943 21.8063
head 7.85544 -3.91577 8.13172
rclavicle -3.18055e-014 3.18055e-014
rhumerus -85.6942 50.9904 -107.878
rradius 126.535
rwrist -37.6678
rhand 42.2524 10.6941
rfingers 7.12502
rthumb 64.234 2.29139
lclavicle -3.18055e-014 3.18055e-014
lhumerus -73.7776 -61.225 93.8467
lradius 128.507
lwrist 76.2626
lhand 24.0474 42.0812
lfingers 7.12502
lthumb 48.2851 64.1599
rfemur -21.8619 -14.8079 17.8026
rtibia 52.6035
rfoot -22.3322 -11.1856
rtoes -23.5043
lfemur -32.3257 -1.82995 -14.6255
ltibia 57.2486
lfoot -15.3786 -14.4597
ltoes 4.57489
1664
root 0.931319 14.7689 -1.43368 -2.2774 17.7487 -6.48222
lowerback 35.8098 5.9424 -11.5019
upperback 1.51588 1.78182 -6.96812
thorax -16.4271 1.34928 -2.565
lowerneck -16.7837 -7.54601 -12.855
upperneck 9.67542 -10.6401 22.1472
head 7.81306 -3.92699 8.28927
rclavicle -2.22639e-014 9.85972e-014
rhumerus -85.6248 51.3794 -108.14
rradius 126.397
rwrist -37.8791
rhand 42.9182 10.5256
rfingers 7.12502
rthumb 64.7656 2.96327
lclavicle -2.22639e-014 9.85972e-014
lhumerus -73.4626 -62.0758 94.1222
lradius 128.41
lwrist 76.4375
lhand 23.7758 41.8682
lfingers 7.12502
lthumb 48.0349 64.0648
rfemur -21.3375 -14.5459 18.1641
rtibia 52.3161
rfoot -22.2578 -11.2636
rtoes -23.5359
lfemur -31.8815 -1.66093 -14.1781
ltibia 57.148
lfoot -15.315 -14.5152
ltoes 4.47502
1665
root 0.923074 14.7733 -1.44305 -2.67945 17.6183 -6.6425
lowerback 35.6824 6.03946 -11.3252
upperback 2.13896 2.08302 -6.9602
thorax -15.627 1.4449 -2.73065
lowerneck -16.9092 -7.66031 -13.0711
upperneck 9.07922 -10.6714 22.3675
head 7.68262 -3.94969 8.38393
rclavicle 7.79236e-014 -3.18055e-014
rhumerus -85.6893 51.7954 -108.629
rradius 126.209
rwrist -37.582
rhand 42.9299 10.9084
rfingers 7.12502
rthumb 64.7749 3.36115
lclavicle 7.79236e-014 -3.18055e-014
lhumerus -73.0011 -62.9774 94.2777
lradius 128.234
lwrist 76.575
lhand 23.495 41.9018
lfingers 7.12502
lthumb 47.7759 64.2185
rfemur -20.8635 -14.4051 18.2729
rtibia 52.0479
rfoot -22.1205 -11.2309
rtoes -23.2458
lfemur -31.4601 -1.5819 -13.98
ltibia 57.0523
lfoot -15.308 -14.5075
ltoes 4.26788
1666
root 0.919197 14.7782 -1.453 -3.02729 17.5163 -6.7495
lowerback 35.4545 6.10243 -11.074
upperback 2.82893 2.38749 -6.9936
thorax -14.7151 1.53867 -2.96726
lowerneck -17.0876 -7.80218 -13.227
upperneck 8.4703 -10.7299 22.4839
head 7.55184 -3.98753 8.42429
rclavicle -6.83819e-014 1.20861e-013
rhumerus -85.5592 52.3017 -108.946
rradius 126.073
rwrist -37.3738
rhand 42.8177 11.145
rfingers 7.12502
rthumb 64.6857 3.45348
lclavicle -6.83819e-014 1.20861e-013
lhumerus -72.2186 -63.8788 94.088
lradius 128.084
lwrist 76.6486
lhand 23.3611 42.3848
lfingers 7.12502
lthumb 47.6523 64.7582
rfemur -20.3892 -14.3378 18.3048
rtibia 51.7868
rfoot -21.9411 -11.0312
rtoes -22.8067
lfemur -31.0641 -1.55242 -13.8596
ltibia 56.9504
lfoot -15.3009 -14.4874
ltoes 4.19569
1667
root 0.913144 14.7835 -1.46253 -3.45169 17.3727 -6.92502
lowerback 35.3101 6.18443 -10.8492
upperback 3.48333 2.69575 -6.93976
thorax -13.8885 1.64352 -3.10054
lowerneck -17.2235 -7.93331 -13.448
upperneck 7.91418 -10.7652 22.5689
head 7.42707 -4.01935 8.47114
rclavicle 3.18055e-014 2.54444e-014
rhumerus -85.7483 52.9305 -109.377
rradius 126.065
rwrist -37.2561
rhand 42.7058 11.1447
rfingers 7.12502
rthumb 64.5966 3.31025
lclavicle 3.18055e-014 2.54444e-014
lhumerus -71.6285 -64.6224 94.0827
lradius 127.991
lwrist 76.6533
lhand 23.3246 42.5566
lfingers 7.12502
lthumb 47.6187 64.9454
rfemur -19.8291 -14.1786 18.4234
rtibia 51.5127
rfoot -21.8239 -10.7061
rtoes -21.7252
lfemur -30.6052 -1.45392 -13.648
ltibia 56.8283
lfoot -15.2243 -14.5433
ltoes 4.48288
1668
root 0.906757 14.79 -1.47007 -3.89408 17.232 -7.03504
lowerback 35.2162 6.30309 -10.675
upperback 4.12366 3.01342 -6.91285
thorax -13.1045 1.75919 -3.24443
lowerneck -17.184 -8.05286 -13.5893
upperneck 7.21381 -10.8019 22.7037
head 7.2272 -4.06121 8.52044
rclavicle -1.59028e-015 -9.54166e-015
rhumerus -86.1767 53.451 -109.985
rradius 126.12
rwrist -36.9703
rhand 42.2457 11.3115
rfingers 7.12502
rthumb 64.2286 2.90056
lclavicle -1.59028e-015 -9.54166e-015
lhumerus -71.1335 -65.4989 94.1762
lradius 127.888
lwrist 76.5612
lhand 23.382 42.2065
lfingers 7.12502
lthumb 47.6716 64.5711
rfemur -19.2646 -14.0707 18.4716
rtibia 51.2169
rfoot -21.7701 -10.6544
rtoes -21.8234
lfemur -30.0762 -1.38829 -13.5025
ltibia 56.7003
lfoot -15.1841 -14.5471
ltoes 4.58025
1669
root 0.900695 14.7963 -1.47851 -4.35491 17.0858 -7.17176
lowerback 35.1434 6.42939 -10.4643
upperback 4.75103 3.34785 -6.87687
thorax -12.3495 1.88498 -3.40377
lowerneck -17.1298 -8.1561 -13.6287
upperneck 6.59676 -10.8372 22.7205
head 7.03589 -4.10479 8.51192
rclavicle -8.11041e-014 -4.13472e-014
rhumerus -86.5312 53.9403 -110.499
rradius 126.167
rwrist -36.8041
rhand 41.6189 11.5165
rfingers 7.12502
rthumb 63.7229 2.34713
lclavicle -8.11041e-014 -4.13472e-014
lhumerus -70.6251 -66.4306 94.3046
lradius 127.71
lwrist 76.381
lhand 23.4839 41.6971
lfingers 7.12502
lthumb 47.7657 64.0185
rfemur -18.7363 -13.9873 18.5594
rtibia 50.91
rfoot -21.65 -11.02
rtoes -23.2779
lfemur -29.542 -1.35513 -13.3268
ltibia 56.5792
lfoot -15.2102 -14.5308
ltoes 4.17224
1670
root 0.8924 14.8011 -1.48971 -4.8472 16.9145 -7.48554
lowerback 35.0745 6.53166 -10.1197
upperback 5.33892 3.70003 -6.782
thorax -11.6469 2.01889 -3.57392
lowerneck -16.9913 -8.20913 -13.6561
upperneck 6.03182 -10.8197 22.7208
head 6.83464 -4.12706 8.50729
rclavicle -6.36111e-015 2.8625e-014
rhumerus -86.9749 54.4217 -111.063
rradius 126.155
rwrist -36.7141
rhand 40.8982 11.7318
rfingers 7.12502
rthumb 63.1354 1.72728
lclavicle -6.36111e-015 2.8625e-014
lhumerus -70.1639 -67.259 94.4395
lradius 127.519
lwrist 76.1164
lhand 23.4828 41.1709
lfingers 7.12502
lthumb 47.7646 63.4928
rfemur -18.2339 -13.8297 18.8617
rtibia 50.6114
rfoot -21.5765 -11.2553
rtoes -23.949
lfemur -29.0752 -1.29401 -12.9493
ltibia 56.4873
lfoot -15.1608 -14.5373
ltoes 4.1284
1671
root 0.884266 14.8051 -1.50206 -5.25536 16.7749 -7.74639
lowerback 34.9295 6.59841 -9.80763
upperback 5.91632 3.99941 -6.71093
thorax -10.93 2.13462 -3.7249
lowerneck -16.7969 -8.22469 -13.7038
upperneck 5.47142 -10.7636 22.8057
head 6.62724 -4.12921 8.5451
rclavicle -6.04305e-014 3.49861e-014
rhumerus -87.5464 54.947 -111.696
rradius 126.247
rwrist -36.6744
rhand 40.1257 11.9916
rfingers 7.12502
rthumb 62.4993 1.13355
lclavicle -6.04305e-014 3.49861e-014
lhumerus -69.4566 -67.9633 94.1744
lradius 127.457
lwrist 75.9114
lhand 23.6416 41.0494
lfingers 7.12502
lthumb 47.9111 63.3036
rfemur -17.7977 -13.6578 19.1219
rtibia 50.3293
rfoot -21.4899 -11.3005
rtoes -23.8478
lfemur -28.7057 -1.25971 -12.6316
ltibia 56.4105
lfoot -15.1051 -14.5392
ltoes 4.23575
